<svg width="60" height="60" viewBox="0 0 60 60" fill="none" xmlns="http://www.w3.org/2000/svg">
<mask id="path-1-outside-1_2_226" maskUnits="userSpaceOnUse" x="0" y="0" width="60" height="60" fill="black">
<rect fill="white" width="60" height="60"/>
<path d="M7.42459 18.7252C6.4521 19.215 5.83715 20.2095 5.83346 21.2984V28.0651C5.83346 29.1328 6.69904 29.9984 7.76679 29.9984V56.0984C7.76679 57.7 9.06517 58.9984 10.6668 58.9984H49.3335C50.9351 58.9984 52.2335 57.7 52.2335 56.0984V29.9984C53.3012 29.9984 54.1668 29.1328 54.1668 28.0651V21.2984C54.1631 20.2095 53.5482 19.215 52.5757 18.7252C56.597 16.147 58.7942 11.334 58.917 11.0576C59.0499 10.7585 59.0224 10.4126 58.8441 10.1382C58.6657 9.86388 58.3607 9.69838 58.0335 9.69842H54.1668V5.83175C54.167 5.4564 53.9498 5.11488 53.6099 4.95578C53.2699 4.79668 52.8686 4.84875 52.5805 5.08935L49.3528 7.78442C47.881 5.10025 45.6566 2.90483 42.9535 1.46822C42.3384 1.12871 41.6405 0.968309 40.9389 1.00518C34.4642 1.41022 31.3631 6.64278 30.0001 10.1818C28.6313 6.64665 25.5303 1.42762 19.0613 1.02355C18.3601 0.984053 17.6619 1.14285 17.0468 1.48175C14.3484 2.91586 12.1268 5.10584 10.6542 7.78345L7.41879 5.08838C7.13054 4.84829 6.72939 4.79665 6.38973 4.95592C6.05007 5.11519 5.83322 5.4566 5.83346 5.83175V9.69842H1.96679C1.63957 9.69838 1.33454 9.86388 1.1562 10.1382C0.977856 10.4126 0.950408 10.7585 1.08326 11.0576C1.20603 11.334 3.40326 16.147 7.42459 18.7252ZM23.2335 20.3318V28.0651H7.76679V21.2984C7.76679 20.7645 8.19958 20.3318 8.73346 20.3318H23.2335ZM25.0991 14.6439C22.8524 12.7087 21.2871 10.1027 20.6341 7.21022C23.6878 8.54808 25.2838 12.1915 25.8618 13.8135C25.5762 14.0597 25.3202 14.3384 25.0991 14.6439ZM26.1335 17.4318C26.1335 15.8301 27.4318 14.5318 29.0335 14.5318H30.9668C32.5684 14.5318 33.8668 15.8301 33.8668 17.4318V18.3984H26.1335V17.4318ZM34.8335 28.0651H25.1668V20.3318H34.8335V28.0651ZM34.1384 13.8135C34.7184 12.1915 36.3134 8.54808 39.3662 7.21022C38.7137 10.1029 37.1483 12.709 34.9011 14.6439C34.68 14.3384 34.424 14.0597 34.1384 13.8135ZM9.70013 56.0984V29.9984H25.1668V57.0651H10.6668C10.1329 57.0651 9.70013 56.6323 9.70013 56.0984ZM27.1001 57.0651V29.9984H32.9001V57.0651H27.1001ZM50.3001 56.0984C50.3001 56.6323 49.8673 57.0651 49.3335 57.0651H34.8335V29.9984H50.3001V56.0984ZM51.2668 20.3318C51.8007 20.3318 52.2335 20.7645 52.2335 21.2984V28.0651H36.7668V20.3318H51.2668ZM53.2001 11.6318H56.4327C55.089 13.945 51.9145 18.3984 47.4001 18.3984H45.2348C46.9031 17.036 48.3486 15.4216 49.5191 13.6134C50.2791 12.4468 50.4953 11.0078 50.1116 9.66942L52.2335 7.89848V10.6651C52.2335 11.199 52.6663 11.6318 53.2001 11.6318ZM41.0598 2.93175C41.4001 2.91682 41.7377 2.99788 42.0342 3.16568C43.459 3.93902 46.9139 6.14785 48.2131 10.0435C48.5007 10.8848 48.3856 11.8115 47.9009 12.5569C46.8201 14.2089 44.5697 17.1331 41.5325 18.3984H35.8001V17.4318C35.8 17.11 35.7676 16.7891 35.7035 16.4738C39.6668 13.6705 41.0414 8.79072 41.4551 6.74525C41.5562 6.25263 41.391 5.74313 41.0201 5.40352C40.646 5.05359 40.1155 4.92619 39.6233 5.06808C35.4193 6.25225 33.2926 10.5336 32.4284 12.8498C32.0306 12.7206 31.6175 12.6442 31.1998 12.6226C31.9141 9.94975 34.3443 3.35515 41.0598 2.93175ZM11.7872 10.0571C13.0835 6.16622 16.5403 3.95642 17.9651 3.18695C18.2625 3.02065 18.6 2.9397 18.9405 2.95302C25.6501 3.37255 28.0813 9.94782 28.8005 12.6197C28.3834 12.6414 27.971 12.7178 27.5738 12.8469C26.7096 10.5269 24.5829 6.24935 20.3789 5.06518C19.8867 4.92488 19.3569 5.05209 18.9821 5.40062C18.6122 5.74084 18.4482 6.25025 18.55 6.74235C18.9589 8.79072 20.3335 13.6734 24.2968 16.4738C24.2326 16.7891 24.2002 17.11 24.2001 17.4318V18.3984H18.4678C15.4305 17.135 13.1782 14.2137 12.0994 12.5627C11.6156 11.8199 11.5005 10.8958 11.7872 10.0571ZM6.80013 11.6318C7.334 11.6318 7.76679 11.199 7.76679 10.6651V7.89462L9.89346 9.66555C9.50515 11.0066 9.72007 12.4503 10.4822 13.6202C11.6516 15.426 13.0958 17.0381 14.7626 18.3984H12.6001C8.09836 18.3984 4.91899 13.946 3.57049 11.6318H6.80013Z"/>
</mask>
<path d="M7.42459 18.7252C6.4521 19.215 5.83715 20.2095 5.83346 21.2984V28.0651C5.83346 29.1328 6.69904 29.9984 7.76679 29.9984V56.0984C7.76679 57.7 9.06517 58.9984 10.6668 58.9984H49.3335C50.9351 58.9984 52.2335 57.7 52.2335 56.0984V29.9984C53.3012 29.9984 54.1668 29.1328 54.1668 28.0651V21.2984C54.1631 20.2095 53.5482 19.215 52.5757 18.7252C56.597 16.147 58.7942 11.334 58.917 11.0576C59.0499 10.7585 59.0224 10.4126 58.8441 10.1382C58.6657 9.86388 58.3607 9.69838 58.0335 9.69842H54.1668V5.83175C54.167 5.4564 53.9498 5.11488 53.6099 4.95578C53.2699 4.79668 52.8686 4.84875 52.5805 5.08935L49.3528 7.78442C47.881 5.10025 45.6566 2.90483 42.9535 1.46822C42.3384 1.12871 41.6405 0.968309 40.9389 1.00518C34.4642 1.41022 31.3631 6.64278 30.0001 10.1818C28.6313 6.64665 25.5303 1.42762 19.0613 1.02355C18.3601 0.984053 17.6619 1.14285 17.0468 1.48175C14.3484 2.91586 12.1268 5.10584 10.6542 7.78345L7.41879 5.08838C7.13054 4.84829 6.72939 4.79665 6.38973 4.95592C6.05007 5.11519 5.83322 5.4566 5.83346 5.83175V9.69842H1.96679C1.63957 9.69838 1.33454 9.86388 1.1562 10.1382C0.977856 10.4126 0.950408 10.7585 1.08326 11.0576C1.20603 11.334 3.40326 16.147 7.42459 18.7252ZM23.2335 20.3318V28.0651H7.76679V21.2984C7.76679 20.7645 8.19958 20.3318 8.73346 20.3318H23.2335ZM25.0991 14.6439C22.8524 12.7087 21.2871 10.1027 20.6341 7.21022C23.6878 8.54808 25.2838 12.1915 25.8618 13.8135C25.5762 14.0597 25.3202 14.3384 25.0991 14.6439ZM26.1335 17.4318C26.1335 15.8301 27.4318 14.5318 29.0335 14.5318H30.9668C32.5684 14.5318 33.8668 15.8301 33.8668 17.4318V18.3984H26.1335V17.4318ZM34.8335 28.0651H25.1668V20.3318H34.8335V28.0651ZM34.1384 13.8135C34.7184 12.1915 36.3134 8.54808 39.3662 7.21022C38.7137 10.1029 37.1483 12.709 34.9011 14.6439C34.68 14.3384 34.424 14.0597 34.1384 13.8135ZM9.70013 56.0984V29.9984H25.1668V57.0651H10.6668C10.1329 57.0651 9.70013 56.6323 9.70013 56.0984ZM27.1001 57.0651V29.9984H32.9001V57.0651H27.1001ZM50.3001 56.0984C50.3001 56.6323 49.8673 57.0651 49.3335 57.0651H34.8335V29.9984H50.3001V56.0984ZM51.2668 20.3318C51.8007 20.3318 52.2335 20.7645 52.2335 21.2984V28.0651H36.7668V20.3318H51.2668ZM53.2001 11.6318H56.4327C55.089 13.945 51.9145 18.3984 47.4001 18.3984H45.2348C46.9031 17.036 48.3486 15.4216 49.5191 13.6134C50.2791 12.4468 50.4953 11.0078 50.1116 9.66942L52.2335 7.89848V10.6651C52.2335 11.199 52.6663 11.6318 53.2001 11.6318ZM41.0598 2.93175C41.4001 2.91682 41.7377 2.99788 42.0342 3.16568C43.459 3.93902 46.9139 6.14785 48.2131 10.0435C48.5007 10.8848 48.3856 11.8115 47.9009 12.5569C46.8201 14.2089 44.5697 17.1331 41.5325 18.3984H35.8001V17.4318C35.8 17.11 35.7676 16.7891 35.7035 16.4738C39.6668 13.6705 41.0414 8.79072 41.4551 6.74525C41.5562 6.25263 41.391 5.74313 41.0201 5.40352C40.646 5.05359 40.1155 4.92619 39.6233 5.06808C35.4193 6.25225 33.2926 10.5336 32.4284 12.8498C32.0306 12.7206 31.6175 12.6442 31.1998 12.6226C31.9141 9.94975 34.3443 3.35515 41.0598 2.93175ZM11.7872 10.0571C13.0835 6.16622 16.5403 3.95642 17.9651 3.18695C18.2625 3.02065 18.6 2.9397 18.9405 2.95302C25.6501 3.37255 28.0813 9.94782 28.8005 12.6197C28.3834 12.6414 27.971 12.7178 27.5738 12.8469C26.7096 10.5269 24.5829 6.24935 20.3789 5.06518C19.8867 4.92488 19.3569 5.05209 18.9821 5.40062C18.6122 5.74084 18.4482 6.25025 18.55 6.74235C18.9589 8.79072 20.3335 13.6734 24.2968 16.4738C24.2326 16.7891 24.2002 17.11 24.2001 17.4318V18.3984H18.4678C15.4305 17.135 13.1782 14.2137 12.0994 12.5627C11.6156 11.8199 11.5005 10.8958 11.7872 10.0571ZM6.80013 11.6318C7.334 11.6318 7.76679 11.199 7.76679 10.6651V7.89462L9.89346 9.66555C9.50515 11.0066 9.72007 12.4503 10.4822 13.6202C11.6516 15.426 13.0958 17.0381 14.7626 18.3984H12.6001C8.09836 18.3984 4.91899 13.946 3.57049 11.6318H6.80013Z" fill="#7AC751"/>
<path d="M7.42459 18.7252C6.4521 19.215 5.83715 20.2095 5.83346 21.2984V28.0651C5.83346 29.1328 6.69904 29.9984 7.76679 29.9984V56.0984C7.76679 57.7 9.06517 58.9984 10.6668 58.9984H49.3335C50.9351 58.9984 52.2335 57.7 52.2335 56.0984V29.9984C53.3012 29.9984 54.1668 29.1328 54.1668 28.0651V21.2984C54.1631 20.2095 53.5482 19.215 52.5757 18.7252C56.597 16.147 58.7942 11.334 58.917 11.0576C59.0499 10.7585 59.0224 10.4126 58.8441 10.1382C58.6657 9.86388 58.3607 9.69838 58.0335 9.69842H54.1668V5.83175C54.167 5.4564 53.9498 5.11488 53.6099 4.95578C53.2699 4.79668 52.8686 4.84875 52.5805 5.08935L49.3528 7.78442C47.881 5.10025 45.6566 2.90483 42.9535 1.46822C42.3384 1.12871 41.6405 0.968309 40.9389 1.00518C34.4642 1.41022 31.3631 6.64278 30.0001 10.1818C28.6313 6.64665 25.5303 1.42762 19.0613 1.02355C18.3601 0.984053 17.6619 1.14285 17.0468 1.48175C14.3484 2.91586 12.1268 5.10584 10.6542 7.78345L7.41879 5.08838C7.13054 4.84829 6.72939 4.79665 6.38973 4.95592C6.05007 5.11519 5.83322 5.4566 5.83346 5.83175V9.69842H1.96679C1.63957 9.69838 1.33454 9.86388 1.1562 10.1382C0.977856 10.4126 0.950408 10.7585 1.08326 11.0576C1.20603 11.334 3.40326 16.147 7.42459 18.7252ZM23.2335 20.3318V28.0651H7.76679V21.2984C7.76679 20.7645 8.19958 20.3318 8.73346 20.3318H23.2335ZM25.0991 14.6439C22.8524 12.7087 21.2871 10.1027 20.6341 7.21022C23.6878 8.54808 25.2838 12.1915 25.8618 13.8135C25.5762 14.0597 25.3202 14.3384 25.0991 14.6439ZM26.1335 17.4318C26.1335 15.8301 27.4318 14.5318 29.0335 14.5318H30.9668C32.5684 14.5318 33.8668 15.8301 33.8668 17.4318V18.3984H26.1335V17.4318ZM34.8335 28.0651H25.1668V20.3318H34.8335V28.0651ZM34.1384 13.8135C34.7184 12.1915 36.3134 8.54808 39.3662 7.21022C38.7137 10.1029 37.1483 12.709 34.9011 14.6439C34.68 14.3384 34.424 14.0597 34.1384 13.8135ZM9.70013 56.0984V29.9984H25.1668V57.0651H10.6668C10.1329 57.0651 9.70013 56.6323 9.70013 56.0984ZM27.1001 57.0651V29.9984H32.9001V57.0651H27.1001ZM50.3001 56.0984C50.3001 56.6323 49.8673 57.0651 49.3335 57.0651H34.8335V29.9984H50.3001V56.0984ZM51.2668 20.3318C51.8007 20.3318 52.2335 20.7645 52.2335 21.2984V28.0651H36.7668V20.3318H51.2668ZM53.2001 11.6318H56.4327C55.089 13.945 51.9145 18.3984 47.4001 18.3984H45.2348C46.9031 17.036 48.3486 15.4216 49.5191 13.6134C50.2791 12.4468 50.4953 11.0078 50.1116 9.66942L52.2335 7.89848V10.6651C52.2335 11.199 52.6663 11.6318 53.2001 11.6318ZM41.0598 2.93175C41.4001 2.91682 41.7377 2.99788 42.0342 3.16568C43.459 3.93902 46.9139 6.14785 48.2131 10.0435C48.5007 10.8848 48.3856 11.8115 47.9009 12.5569C46.8201 14.2089 44.5697 17.1331 41.5325 18.3984H35.8001V17.4318C35.8 17.11 35.7676 16.7891 35.7035 16.4738C39.6668 13.6705 41.0414 8.79072 41.4551 6.74525C41.5562 6.25263 41.391 5.74313 41.0201 5.40352C40.646 5.05359 40.1155 4.92619 39.6233 5.06808C35.4193 6.25225 33.2926 10.5336 32.4284 12.8498C32.0306 12.7206 31.6175 12.6442 31.1998 12.6226C31.9141 9.94975 34.3443 3.35515 41.0598 2.93175ZM11.7872 10.0571C13.0835 6.16622 16.5403 3.95642 17.9651 3.18695C18.2625 3.02065 18.6 2.9397 18.9405 2.95302C25.6501 3.37255 28.0813 9.94782 28.8005 12.6197C28.3834 12.6414 27.971 12.7178 27.5738 12.8469C26.7096 10.5269 24.5829 6.24935 20.3789 5.06518C19.8867 4.92488 19.3569 5.05209 18.9821 5.40062C18.6122 5.74084 18.4482 6.25025 18.55 6.74235C18.9589 8.79072 20.3335 13.6734 24.2968 16.4738C24.2326 16.7891 24.2002 17.11 24.2001 17.4318V18.3984H18.4678C15.4305 17.135 13.1782 14.2137 12.0994 12.5627C11.6156 11.8199 11.5005 10.8958 11.7872 10.0571ZM6.80013 11.6318C7.334 11.6318 7.76679 11.199 7.76679 10.6651V7.89462L9.89346 9.66555C9.50515 11.0066 9.72007 12.4503 10.4822 13.6202C11.6516 15.426 13.0958 17.0381 14.7626 18.3984H12.6001C8.09836 18.3984 4.91899 13.946 3.57049 11.6318H6.80013Z" stroke="#7AC751" stroke-width="0.5" mask="url(#path-1-outside-1_2_226)"/>
<path d="M12.6001 31.8059C11.9971 31.8059 11.5084 32.2947 11.5084 32.8976V34.8309C11.5084 35.4338 11.9971 35.9226 12.6001 35.9226C13.203 35.9226 13.6917 35.4338 13.6917 34.8309V32.8976C13.6917 32.2947 13.203 31.8059 12.6001 31.8059Z" fill="#7AC751" stroke="#7AC751" stroke-width="0.25"/>
<path d="M12.6001 37.606C11.9971 37.606 11.5084 38.0947 11.5084 38.6976V54.1643C11.5084 54.7672 11.9971 55.256 12.6001 55.256C13.203 55.256 13.6917 54.7672 13.6917 54.1643V38.6976C13.6917 38.0947 13.203 37.606 12.6001 37.606Z" fill="#7AC751" stroke="#7AC751" stroke-width="0.25"/>
<path d="M47.4003 35.9226C48.0032 35.9226 48.492 35.4338 48.492 34.8309V32.8976C48.492 32.2947 48.0032 31.8059 47.4003 31.8059C46.7974 31.8059 46.3087 32.2947 46.3087 32.8976V34.8309C46.3087 35.4338 46.7974 35.9226 47.4003 35.9226Z" fill="#7AC751" stroke="#7AC751" stroke-width="0.25"/>
<path d="M47.4003 55.256C48.0032 55.256 48.492 54.7672 48.492 54.1643V38.6976C48.492 38.0947 48.0032 37.606 47.4003 37.606C46.7974 37.606 46.3087 38.0947 46.3087 38.6976V54.1643C46.3087 54.7672 46.7974 55.256 47.4003 55.256Z" fill="#7AC751" stroke="#7AC751" stroke-width="0.25"/>
</svg>
