<svg width="58" height="58" viewBox="0 0 58 58" fill="none" xmlns="http://www.w3.org/2000/svg">
<path d="M53.9398 32.5048L52.4378 26.4969C52.8484 26.4097 53.1565 26.0454 53.1565 25.6089V24.6402C53.1565 22.537 51.4454 20.826 49.3424 20.826H42.5011V18.8281C42.5011 17.7932 41.6592 16.9513 40.6242 16.9513H27.9034L35.6337 13.8591C36.0994 13.6729 36.3259 13.1443 36.1397 12.6786C35.9534 12.213 35.4252 11.9864 34.9592 12.1727L28.6297 14.7044C30.5584 13.4669 32.4666 12.105 33.1931 11.1525C34.6074 9.2982 34.2492 6.63903 32.3949 5.22472C30.5406 3.81029 27.8815 4.1686 26.4671 6.0229C25.4338 7.37797 24.0703 11.1855 23.1879 13.8685C22.3054 11.1857 20.942 7.37797 19.9086 6.0229C18.4944 4.1686 15.8351 3.81051 13.9808 5.22472C12.1265 6.63892 11.7684 9.29808 13.1827 11.1525C13.9091 12.1051 15.8172 13.4669 17.7461 14.7044L11.4166 12.1727C10.9507 11.9861 10.4223 12.2129 10.2361 12.6786C10.0497 13.1443 10.2763 13.6729 10.742 13.8591L18.4723 16.9513H5.75152C4.71658 16.9513 3.87467 17.7932 3.87467 18.8281V35.2958C3.87467 35.7973 4.28124 36.204 4.78285 36.204C5.28434 36.204 5.69102 35.7974 5.69102 35.2958V18.8281C5.69102 18.7947 5.7181 18.7676 5.75152 18.7676H40.6241C40.6575 18.7676 40.6846 18.7947 40.6846 18.8281V35.296C40.6846 35.7975 41.0912 36.2042 41.5928 36.2042C42.0943 36.2042 42.501 35.7976 42.501 35.296V34.2665H53.2135C53.2145 34.2665 53.2153 34.2667 53.2164 34.2667C53.2174 34.2667 53.2183 34.2666 53.2193 34.2666C54.5374 34.2676 55.6567 35.1329 56.0409 36.3251H53.217C52.7155 36.3251 52.3089 36.7316 52.3089 37.2332V39.1706C52.3089 40.7396 53.5853 42.0161 55.1544 42.0161H56.1836V46.0119H53.809C53.029 43.7596 50.8879 42.1371 48.3736 42.1371C45.8593 42.1371 43.7181 43.7595 42.9381 46.0119H42.5009V39.1705C42.5009 38.669 42.0943 38.2623 41.5927 38.2623C41.0912 38.2623 40.6845 38.6689 40.6845 39.1705V46.0117H21.8426C21.0625 43.7595 18.9214 42.137 16.4071 42.137C13.8928 42.137 11.7516 43.7594 10.9716 46.0117H5.75152C5.7181 46.0117 5.69102 45.9847 5.69102 45.9513V43.9533H9.6263C10.1278 43.9533 10.5345 43.5467 10.5345 43.0451C10.5345 42.5435 10.1279 42.137 9.6263 42.137H0.908176C0.40668 42.137 0 42.5435 0 43.0451C0 43.5467 0.406566 43.9533 0.908176 43.9533H3.87479V45.9513C3.87479 46.9862 4.71669 47.8281 5.75163 47.8281H10.6572C10.6569 47.8483 10.6556 47.8683 10.6556 47.8886C10.6556 51.0599 13.2358 53.6401 16.4071 53.6401C19.5784 53.6401 22.1586 51.0599 22.1586 47.8886C22.1586 47.8682 22.1572 47.8483 22.157 47.8281H42.6235C42.6233 47.8483 42.622 47.8683 42.622 47.8886C42.622 51.0599 45.2022 53.6401 48.3735 53.6401C51.5448 53.6401 54.125 51.0599 54.125 47.8886C54.125 47.8682 54.1236 47.8483 54.1234 47.8281H57.0917C57.5932 47.8281 57.9999 47.4215 57.9999 46.9199V37.2331C58 34.8413 56.2354 32.8541 53.9398 32.5048ZM19.5863 13.7138C16.004 11.4877 14.9415 10.4635 14.6269 10.051C13.82 8.99302 14.0243 7.47584 15.0824 6.66894C15.5185 6.33635 16.0326 6.1756 16.5429 6.1756C17.2704 6.1756 17.9902 6.50253 18.4645 7.12444C19.343 8.27629 20.7188 12.1531 21.6271 14.9467C21.0141 14.5858 20.3095 14.1634 19.5863 13.7138ZM24.7489 14.9466C25.6572 12.1531 27.033 8.2764 27.9114 7.12433C28.7183 6.0664 30.2354 5.86215 31.2934 6.66894C32.3514 7.47584 32.5557 8.99302 31.7489 10.051C31.4343 10.4634 30.3717 11.4877 26.7897 13.7137C26.0666 14.1632 25.362 14.5857 24.7489 14.9466ZM42.5011 22.6422H49.3424C50.444 22.6422 51.3403 23.5384 51.3403 24.6401V24.7006H42.5011V22.6422ZM42.5011 32.4502V26.5169H50.5707L52.054 32.4502H42.5011ZM16.4071 51.8239C14.2372 51.8239 12.4718 50.0585 12.4718 47.8886C12.4718 45.7187 14.2372 43.9533 16.4071 43.9533C18.577 43.9533 20.3424 45.7187 20.3424 47.8886C20.3424 50.0585 18.577 51.8239 16.4071 51.8239ZM48.3737 51.8239C46.2038 51.8239 44.4384 50.0585 44.4384 47.8886C44.4384 45.7187 46.2038 43.9533 48.3737 43.9533C50.5436 43.9533 52.309 45.7187 52.309 47.8886C52.309 50.0585 50.5436 51.8239 48.3737 51.8239ZM56.1838 40.1996H55.1545C54.5869 40.1996 54.1252 39.7379 54.1252 39.1703V38.1411H56.1836V40.1996H56.1838Z" fill="#7AC751"/>
<path d="M16.4075 46.0117C15.3725 46.0117 14.5306 46.8536 14.5306 47.8886C14.5306 48.9235 15.3725 49.7654 16.4075 49.7654C17.4424 49.7654 18.2843 48.9235 18.2843 47.8886C18.2843 46.8536 17.4424 46.0117 16.4075 46.0117Z" fill="#7AC751"/>
<path d="M48.3734 46.0117C47.3385 46.0117 46.4966 46.8536 46.4966 47.8886C46.4966 48.9235 47.3385 49.7654 48.3734 49.7654C49.4084 49.7654 50.2503 48.9235 50.2503 47.8886C50.2503 46.8536 49.4084 46.0117 48.3734 46.0117Z" fill="#7AC751"/>
<path d="M37.7185 42.137H24.1569C23.6554 42.137 23.2487 42.5435 23.2487 43.0451C23.2487 43.5467 23.6553 43.9533 24.1569 43.9533H37.7185C38.22 43.9533 38.6266 43.5467 38.6266 43.0451C38.6266 42.5435 38.2201 42.137 37.7185 42.137Z" fill="#7AC751"/>
<path d="M14.4702 38.2622H2.84598C2.34448 38.2622 1.93781 38.6688 1.93781 39.1704C1.93781 39.672 2.34437 40.0786 2.84598 40.0786H14.4702C14.9717 40.0786 15.3784 39.672 15.3784 39.1704C15.3784 38.6688 14.9717 38.2622 14.4702 38.2622Z" fill="#7AC751"/>
<path d="M14.4697 24.7004H10.5949C10.0934 24.7004 9.68677 25.107 9.68677 25.6086V33.3581C9.68677 33.8596 10.0933 34.2663 10.5949 34.2663C11.0966 34.2663 11.5031 33.8597 11.5031 33.3581V30.3915H13.5011C14.0026 30.3915 14.4092 29.9849 14.4092 29.4833C14.4092 28.9817 14.0027 28.5751 13.5011 28.5751H11.5031V26.5168H14.4697C14.9712 26.5168 15.3779 26.1102 15.3779 25.6086C15.3778 25.1071 14.9712 24.7004 14.4697 24.7004Z" fill="#7AC751"/>
<path d="M21.6164 30.8173C22.5253 30.222 23.1273 29.1954 23.1273 28.0303C23.1273 26.1942 21.6335 24.7004 19.7974 24.7004H17.3756C16.8741 24.7004 16.4675 25.107 16.4675 25.6086V33.3581C16.4675 33.8596 16.874 34.2663 17.3756 34.2663C17.8773 34.2663 18.2838 33.8597 18.2838 33.3581V31.3601H19.7957L21.4634 33.8617C21.6384 34.1242 21.9263 34.2663 22.2198 34.2663C22.393 34.2663 22.5679 34.2169 22.7226 34.1136C23.1401 33.8354 23.2528 33.2715 22.9745 32.8543L21.6164 30.8173ZM19.7974 29.5439H18.2838V26.5168H19.7974C20.632 26.5168 21.3109 27.1957 21.3109 28.0303C21.3109 28.865 20.632 29.5439 19.7974 29.5439Z" fill="#7AC751"/>
<path d="M28.9997 32.45H26.0331V30.3885C26.0532 30.3899 26.0732 30.3916 26.0936 30.3916H28.031C28.5325 30.3916 28.9391 29.985 28.9391 29.4834C28.9391 28.9818 28.5326 28.5752 28.031 28.5752H26.0936C26.0731 28.5752 26.0532 28.5769 26.0331 28.5783V26.5168H28.9997C29.5012 26.5168 29.9079 26.1102 29.9079 25.6086C29.9079 25.1071 29.5014 24.7004 28.9997 24.7004H25.125C24.6235 24.7004 24.2168 25.107 24.2168 25.6086V33.3581C24.2168 33.8596 24.6234 34.2663 25.125 34.2663H28.9997C29.5012 34.2663 29.9079 33.8597 29.9079 33.3581C29.9079 32.8565 29.5012 32.45 28.9997 32.45Z" fill="#7AC751"/>
<path d="M35.781 32.45H32.8144V30.3916H33.8437C34.3452 30.3916 34.7518 29.985 34.7518 29.4834C34.7518 28.9818 34.3453 28.5752 33.8437 28.5752H32.8144V26.5168H35.781C36.2825 26.5168 36.6892 26.1102 36.6892 25.6086C36.6892 25.1071 36.2826 24.7004 35.781 24.7004H31.9062C31.4047 24.7004 30.998 25.107 30.998 25.6086V33.3581C30.998 33.8596 31.4046 34.2663 31.9062 34.2663H35.781C36.2825 34.2663 36.6892 33.8597 36.6892 33.3581C36.6892 32.8565 36.2825 32.45 35.781 32.45Z" fill="#7AC751"/>
</svg>
