<svg width="58" height="58" viewBox="0 0 58 58" fill="none" xmlns="http://www.w3.org/2000/svg">
<path d="M55.3638 29.2433V21.0915C55.3638 18.3273 53.2197 16.0793 50.5107 15.8613L42.9404 2.6385C42.2388 1.41557 41.106 0.541509 39.7505 0.178561C38.4014 -0.181914 36.9906 0.00740666 35.7831 0.710192L9.83148 15.8188H5.27357C2.36567 15.8188 0.000888824 18.1834 0.000888824 21.0915V52.7273C0.000888824 55.6352 2.36555 58 5.27357 58H50.0911C52.999 58 55.3638 55.6353 55.3638 52.7273V44.5755C56.8948 44.0296 58 42.5801 58 40.8639V32.9549C58 31.2387 56.8948 29.7892 55.3638 29.2433ZM47.4474 15.8188H35.9582L44.5752 10.802L47.4474 15.8188ZM43.2654 8.51424L30.7187 15.8188H25.5145L41.9641 6.24152L43.2654 8.51424ZM37.1102 2.98859C37.7063 2.63973 38.4026 2.54705 39.0682 2.72475C39.7415 2.90493 40.3027 3.34005 40.6516 3.94891L40.6543 3.95373L20.2751 15.8188H15.0712L37.1102 2.98859ZM52.7273 52.7273C52.7273 54.1806 51.5443 55.3636 50.0911 55.3636H5.27357C3.8203 55.3636 2.63729 54.1806 2.63729 52.7273V21.0915C2.63729 19.6382 3.8203 18.4552 5.27357 18.4552H50.0911C51.5443 18.4552 52.7273 19.6382 52.7273 21.0915V29.0004H44.8184C40.4571 29.0004 36.9094 32.5481 36.9094 36.9094C36.9094 41.2707 40.4571 44.8183 44.8184 44.8183H52.7273V52.7273ZM55.3638 40.8639C55.3638 41.5911 54.7729 42.1821 54.0456 42.1821H44.8184C41.9105 42.1821 39.5457 39.8174 39.5457 36.9094C39.5457 34.0015 41.9104 31.6367 44.8184 31.6367H54.0456C54.7728 31.6367 55.3638 32.2275 55.3638 32.9549V40.8639Z" fill="#7AC751"/>
<path d="M44.818 34.2732C43.3647 34.2732 42.1817 35.4562 42.1817 36.9095C42.1817 38.3627 43.3647 39.5457 44.818 39.5457C46.2712 39.5457 47.4542 38.3627 47.4542 36.9095C47.4544 35.4562 46.2713 34.2732 44.818 34.2732Z" fill="#7AC751"/>
</svg>
