<svg width="54" height="58" viewBox="0 0 54 58" fill="none" xmlns="http://www.w3.org/2000/svg">
<path d="M47.9608 23.9752H47.8172V20.4579C47.8172 9.15933 38.658 0 27.3593 0C16.0606 0 6.90141 9.15933 6.90141 20.4579V23.9752H6.04008C2.88163 23.9752 0.441075 26.7747 0.441075 30.005V38.9777C0.361523 42.1086 2.83519 44.7111 5.96602 44.7907C5.99075 44.7913 6.01535 44.7918 6.04008 44.792H11.3519C12.1043 44.7567 12.6856 44.118 12.6502 43.3656C12.6489 43.3385 12.6469 43.3115 12.644 43.2845V25.6979C12.644 24.8366 12.1415 23.9751 11.3519 23.9751H9.7727V20.4578C9.7727 10.745 17.6466 2.87115 27.3593 2.87115C37.0721 2.87115 44.9459 10.745 44.9459 20.4578V23.9751H43.3667C42.5771 23.9751 42.0747 24.8364 42.0747 25.6979V43.2845C41.9946 44.0335 42.5367 44.7056 43.2857 44.7857C43.3126 44.7886 43.3397 44.7907 43.3667 44.7919H45.0177L44.8741 45.0072C42.7201 47.8698 39.3402 49.5465 35.7578 49.5294C34.9735 45.6839 31.2201 43.2021 27.3746 43.9865C24.086 44.6571 21.715 47.5372 21.6885 50.8934C21.7278 54.8297 24.9302 58 28.8667 57.9997C30.8154 57.9681 32.6728 57.1685 34.035 55.7745C34.954 54.8333 35.5562 53.6288 35.7578 52.3289C40.244 52.3459 44.4748 50.2437 47.1711 46.6581L48.535 44.6482C51.6216 44.4329 53.5597 42.4948 53.5597 39.6952V30.7225C53.5598 27.6361 51.2628 23.9752 47.9608 23.9752ZM9.7727 41.9207H6.04008C4.49438 41.8831 3.27183 40.5997 3.30948 39.054C3.31017 39.0286 3.31113 39.0031 3.31237 38.9776V30.0048C3.31237 28.3539 4.46086 26.8464 6.04008 26.8464H9.7727V41.9207ZM31.9534 53.7648C31.1579 54.6273 30.0402 55.1213 28.8668 55.1287C26.5314 55.0916 24.6361 53.228 24.5599 50.8935C24.5589 48.5545 26.4543 46.6576 28.7933 46.6566C31.1323 46.6557 33.0292 48.551 33.0302 50.8901C33.0302 50.8912 33.0302 50.8924 33.0302 50.8935C33.09 51.9593 32.6992 53.0011 31.9534 53.7648ZM50.6885 39.6955C50.6885 41.6336 48.8222 41.9207 47.9608 41.9207H44.9459V26.8465H47.9608C49.54 26.8465 50.6885 29.0718 50.6885 30.7227V39.6955Z" fill="#7AC751"/>
</svg>
